<svg width="72" height="33" viewBox="0 0 72 33" fill="none" xmlns="http://www.w3.org/2000/svg">
<path d="M1.7108 30.9944C-1.18375 24.5379 1.94095 16.03 8.32314 13.0016C14.7053 9.97317 23.2474 13.0016 26.3809 19.2982C26.4647 15.8675 27.7164 12.5689 29.9278 9.95091C32.1393 7.33291 35.1773 5.55323 38.5368 4.90778C41.8962 4.26232 45.3746 4.78998 48.3937 6.40303C51.4128 8.01607 53.7906 10.6173 55.1317 13.7742C54.2466 7.72629 59.0531 1.6606 65.0193 0.390621C70.9854 -0.879356 77.4119 2.16681 80.8641 7.22007C84.3163 12.2733 85.0422 18.8719 83.5816 24.8133C82.962 27.3354 81.8112 29.9553 79.554 31.2342C77.7836 32.2377 75.6504 32.2377 73.6233 32.22" fill="url(#paint0_linear)"/>
<defs>
<linearGradient id="paint0_linear" x1="0.622025" y1="16.1632" x2="84.2898" y2="16.1632" gradientUnits="userSpaceOnUse">
<stop stop-color="#453AE9"/>
<stop offset="0.21" stop-color="#453FE9"/>
<stop offset="0.47" stop-color="#434EE8"/>
<stop offset="0.76" stop-color="#4167E7"/>
<stop offset="1" stop-color="#3F82E6"/>
</linearGradient>
</defs>
</svg>
