<svg width="438" height="378" viewBox="0 0 438 378" fill="none" xmlns="http://www.w3.org/2000/svg">
<path d="M-3.75559 293.286C8.45112 281.04 37.8481 266.643 81.4612 273.127C95.4383 275.205 108.813 281.803 122.923 281.119C150.594 279.805 167.333 249.334 192.853 238.491C215.717 228.722 242.839 236.422 263.11 250.835C283.381 265.249 298.518 285.578 314.805 304.405C331.092 323.233 349.69 341.448 373.298 349.236C385.593 353.286 398.738 354.325 410.972 358.579C423.205 362.833 435.146 371.51 437.987 384.174V418.526H-3.72018C-3.72018 418.526 -5.40203 294.974 -3.75559 293.286Z" fill="url(#paint0_linear)"/>
<g style="mix-blend-mode:multiply">
<path d="M301.881 327.434C299.828 320.222 252.001 327.878 191.384 335.666C130.766 343.455 81.9658 352.398 82.3818 355.64C82.7978 358.881 121.188 360.577 181.806 352.789C242.423 345 302.784 330.577 301.881 327.434Z" fill="#C8C8C8"/>
</g>
<g style="mix-blend-mode:multiply">
<path d="M257.826 363.828C257.215 357.895 242.441 359.778 223.737 360.639C205.033 361.501 189.967 364.325 190.1 366.945C190.233 369.565 202.059 374.298 220.763 373.437C239.467 372.575 258.1 366.403 257.826 363.828Z" fill="#C8C8C8"/>
</g>
<path d="M269.581 87.7987C266.686 81.3423 269.811 72.8343 276.193 69.8059C282.575 66.7775 291.117 69.8059 294.251 76.1025C294.335 72.6718 295.586 69.3732 297.798 66.7552C300.009 64.1372 303.047 62.3576 306.407 61.7121C309.766 61.0666 313.245 61.5943 316.264 63.2073C319.283 64.8204 321.661 67.4216 323.002 70.5785C322.117 64.5306 326.923 58.4649 332.889 57.1949C338.856 55.925 345.282 58.9711 348.734 64.0244C352.186 69.0777 352.912 75.6762 351.452 81.6176C350.832 84.1398 349.681 86.7596 347.424 88.0385C345.654 89.0421 343.52 89.0421 341.493 89.0243" fill="url(#paint1_linear)"/>
<path d="M66.0413 49.9037C68.9358 43.4473 65.8111 34.9393 59.429 31.9109C53.0468 28.8825 44.5047 31.9109 41.3712 38.2075C41.1974 34.8083 39.913 31.561 37.7164 28.9671C35.5198 26.3732 32.5331 24.577 29.2176 23.8559C25.8638 23.2985 22.4205 23.8667 19.4214 25.4724C16.4222 27.078 14.0348 29.6315 12.6292 32.7368C13.5144 26.68 8.70781 20.6143 2.74166 19.3444C-3.22449 18.0744 -9.65095 21.1205 -13.1032 26.1738C-16.5554 31.2271 -17.2812 37.8079 -15.8207 43.7226C-15.1922 46.2537 -14.0503 48.8735 -11.7842 50.1524C-10.0139 51.1471 -7.88943 51.1471 -5.86235 51.1293" fill="url(#paint2_linear)"/>
<path d="M22.1981 165.338C23.1798 162.904 23.2213 160.19 22.3144 157.726C21.4075 155.262 19.6174 153.227 17.2941 152.017C14.8835 150.977 12.1724 150.88 9.69392 151.745C7.21547 152.609 5.14911 154.373 3.90126 156.688C3.77708 154.165 2.82679 151.753 1.19765 149.826C-0.431499 147.899 -2.64854 146.566 -5.10993 146.031C-7.59248 145.615 -10.1424 146.032 -12.3651 147.217C-14.5878 148.402 -16.3592 150.289 -17.4052 152.585C-16.7678 148.092 -20.3174 143.598 -24.7434 142.648C-29.1693 141.697 -33.9227 143.989 -36.4898 147.719C-37.714 149.63 -38.5259 151.778 -38.8735 154.023C-39.2211 156.268 -39.0966 158.562 -38.508 160.756C-38.0477 162.63 -37.1979 164.575 -35.5161 165.516C-34.131 166.147 -32.6037 166.399 -31.0901 166.244" fill="url(#paint3_linear)"/>
<path d="M105.662 331.022C106.158 337.371 98.4922 341.812 92.2605 340.577C86.0288 339.343 81.2311 334.521 76.8228 329.92C72.4146 325.32 67.5372 320.56 61.2878 319.467C50.9931 317.691 41.3358 326.483 30.9171 325.684C20.4985 324.885 13.4701 315.373 7.45085 306.91C1.43159 298.446 -6.71212 289.352 -17.0688 290.205C-20.8397 290.515 -24.4247 292.194 -28.2044 292.301C-31.9842 292.407 -36.3835 290.08 -36.3835 286.279C-36.3835 282.478 -32.3382 280.356 -28.9037 278.944L1.30766 266.51C12.5495 261.892 25.367 257.274 36.4318 262.292C46.0892 266.679 51.9137 277.514 61.9252 280.986C75.0879 285.542 90.3396 275.658 103.131 281.208C112.761 285.364 117.17 297.194 116.037 307.656C114.904 318.117 109.46 327.531 104.131 336.59" fill="url(#paint4_linear)"/>
<path d="M-35.162 287.363C-20.7954 279.37 3.49406 280.391 18.7724 286.421C28.3412 290.196 36.9895 296.652 47.1426 298.295C55.9413 299.716 64.8994 297.354 73.8044 297.522C88.2506 297.798 103.334 308.18 111.867 319.894" stroke="#FFF9F7" stroke-width="0.65" stroke-miterlimit="10"/>
<path d="M50.763 298.5C50.763 298.5 43.7877 266.528 29.5717 260.489" stroke="#FFF9F7" stroke-width="0.65" stroke-miterlimit="10"/>
<path d="M88.9941 301.572C88.9941 301.572 90.7645 286.35 78.9473 282.034" stroke="#FFF9F7" stroke-width="0.65" stroke-miterlimit="10"/>
<path d="M101.272 308.846C101.272 308.846 91.9418 324.308 72.9457 325.862" stroke="#FFF9F7" stroke-width="0.65" stroke-miterlimit="10"/>
<path d="M19.0468 260.338C19.0468 260.338 30.8729 268.331 37.2108 295.711" stroke="#FFF9F7" stroke-width="0.65" stroke-miterlimit="10"/>
<path d="M47.1426 298.304C47.1426 298.304 32.9796 317.061 16.4443 317.505" stroke="#FFF9F7" stroke-width="0.65" stroke-miterlimit="10"/>
<path d="M-1.64886 296.306C-1.64886 296.306 15.8513 295.462 20.9145 287.824" stroke="#FFF9F7" stroke-width="0.65" stroke-miterlimit="10"/>
<path d="M-4.24246 268.935C-4.24246 268.935 1.35191 271.874 4.05173 282.114" stroke="#FFF9F7" stroke-width="0.65" stroke-miterlimit="10"/>
<path d="M61.2878 319.494C61.2878 319.494 86.9582 317.673 84.7895 299.601" stroke="#FFF9F7" stroke-width="0.65" stroke-miterlimit="10"/>
<path d="M61.9606 280.995C61.9606 280.995 69.52 287.762 65.3862 296.865" stroke="#FFF9F7" stroke-width="0.65" stroke-miterlimit="10"/>
<path d="M100.351 280.533C100.351 280.533 109.114 297.167 105.184 310.924" stroke="#FFF9F7" stroke-width="0.65" stroke-miterlimit="10"/>
<path d="M236.546 281.643C230.518 278.979 230.226 269.796 234.386 264.681C238.546 259.565 245.3 257.576 251.62 255.72C257.941 253.864 264.695 251.786 268.749 246.59C275.432 238.038 272.112 224.867 277.902 215.685C283.691 206.502 295.835 204.734 306.484 203.358C317.133 201.981 329.419 198.917 333.695 189.042C335.253 185.427 335.465 181.324 337.236 177.798C339.006 174.273 343.326 171.413 346.76 173.358C350.195 175.303 350.186 179.965 349.788 183.793C348.607 195.042 347.454 206.291 346.326 217.541C345.043 230.098 342.98 244.113 332.996 251.803C324.285 258.517 311.565 258.562 303.501 266.013C292.879 275.844 294.419 294.645 283.142 303.677C274.644 310.471 261.703 308.73 252.736 302.576C243.769 296.421 237.847 286.83 232.199 277.514" fill="#FFAE2C"/>
<path d="M345.176 173.855C345.406 190.933 332.624 212.718 319.665 223.775C311.539 230.702 301.43 235.48 294.968 243.988C289.374 251.359 287.143 260.729 282.637 268.81C275.317 281.928 258.489 290.684 243.689 292.789" stroke="#FFF9F7" stroke-width="0.67" stroke-miterlimit="10"/>
<path d="M293.021 247.212C293.021 247.212 325.569 256.466 338.006 246.324" stroke="#FFF9F7" stroke-width="0.67" stroke-miterlimit="10"/>
<path d="M333.969 206.661C333.969 206.661 327.596 201.439 333.695 189.042" stroke="#FFF9F7" stroke-width="0.67" stroke-miterlimit="10"/>
<path d="M271.493 280.755C271.493 280.755 284.505 289.823 294.242 281.119" stroke="#FFF9F7" stroke-width="0.67" stroke-miterlimit="10"/>
<path d="M258.888 288.464C258.888 288.464 249.363 272.345 257.233 254.183" stroke="#FFF9F7" stroke-width="0.67" stroke-miterlimit="10"/>
<path d="M343.299 236.795C343.299 236.795 330.243 243.731 302.191 236.146" stroke="#FFF9F7" stroke-width="0.67" stroke-miterlimit="10"/>
<path d="M294.968 243.988C294.968 243.988 284.824 221.786 292.489 206.448" stroke="#FFF9F7" stroke-width="0.67" stroke-miterlimit="10"/>
<path d="M320.656 200.223C320.656 200.223 312.858 216.679 317.345 225.089" stroke="#FFF9F7" stroke-width="0.67" stroke-miterlimit="10"/>
<path d="M349.23 190.063C349.23 190.063 349.23 193.971 340.67 195.782" stroke="#FFF9F7" stroke-width="0.67" stroke-miterlimit="10"/>
<path d="M346.902 211.235C346.902 211.235 341.485 214.93 330.836 212.39" stroke="#FFF9F7" stroke-width="0.67" stroke-miterlimit="10"/>
<path d="M268.749 246.59C268.749 246.59 257.843 271.04 275.379 277.878" stroke="#FFF9F7" stroke-width="0.67" stroke-miterlimit="10"/>
<path d="M303.528 266.048C303.528 266.048 293.658 269.663 287.391 261.413" stroke="#FFF9F7" stroke-width="0.67" stroke-miterlimit="10"/>
<path d="M285.134 301.475C285.134 301.475 265.66 301.368 255.09 291.039" stroke="#FFF9F7" stroke-width="0.67" stroke-miterlimit="10"/>
<g style="mix-blend-mode:multiply">
<g style="mix-blend-mode:multiply">
<path d="M88.587 301.474C86.7635 305.48 81.0009 305.373 77.9205 302.363C74.84 299.352 73.769 294.716 72.813 290.356C71.8569 285.995 70.7239 281.377 67.5904 278.482C62.4386 273.659 54.109 275.48 48.5323 271.244C42.9556 267.008 42.2032 258.704 41.6367 251.421C41.0702 244.139 39.5211 235.693 33.4665 232.469C31.2535 231.288 28.6953 230.995 26.5354 229.69C24.3756 228.384 22.7203 225.347 24.0038 223.073C25.2873 220.8 28.235 220.978 30.6162 221.368L51.6393 224.841C59.4466 226.128 68.148 227.993 72.6713 235.036C76.6192 241.173 76.2917 249.814 80.7354 255.533C86.5864 263.055 98.3771 262.638 103.697 270.631C107.707 276.626 106.255 285.356 102.148 291.244C98.0407 297.132 91.8798 300.826 85.9048 304.352" fill="#00875B"/>
</g>
<g style="mix-blend-mode:multiply">
<path d="M24.3048 224.13C34.9801 224.539 48.2048 233.944 54.7817 243.109C58.8801 248.855 61.5799 255.88 66.714 260.551C71.1399 264.601 76.9468 266.421 81.8772 269.752C89.8439 275.16 94.8541 286.874 95.7304 297.025" stroke="#FFF9F7" stroke-width="0.44" stroke-miterlimit="10"/>
</g>
<g style="mix-blend-mode:multiply">
<path d="M41.1233 248.597C41.1233 248.597 50.7364 253.775 59.1457 250.32" stroke="#FFF9F7" stroke-width="0.44" stroke-miterlimit="10"/>
</g>
<g style="mix-blend-mode:multiply">
<path d="M80.0803 269.281C80.0803 269.281 54.7286 273.961 45.5581 267.958" stroke="#FFF9F7" stroke-width="0.44" stroke-miterlimit="10"/>
</g>
<g style="mix-blend-mode:multiply">
<path d="M44.487 232.834C44.487 232.834 41.0436 236.99 33.4665 232.434" stroke="#FFF9F7" stroke-width="0.44" stroke-miterlimit="10"/>
</g>
<g style="mix-blend-mode:multiply">
<path d="M89.0207 277.718C89.0207 277.718 95.0577 269.183 89.9059 262.274" stroke="#FFF9F7" stroke-width="0.44" stroke-miterlimit="10"/>
</g>
<g style="mix-blend-mode:multiply">
<path d="M93.482 286.528C93.482 286.528 83.143 292.46 72.0074 286.528" stroke="#FFF9F7" stroke-width="0.44" stroke-miterlimit="10"/>
</g>
<g style="mix-blend-mode:multiply">
<path d="M63.5804 227.496C63.5804 227.496 67.5461 236.59 62.0137 255.391" stroke="#FFF9F7" stroke-width="0.44" stroke-miterlimit="10"/>
</g>
<g style="mix-blend-mode:multiply">
<path d="M34.5464 221.919C34.5464 221.919 36.9895 222.061 37.8747 227.922" stroke="#FFF9F7" stroke-width="0.44" stroke-miterlimit="10"/>
</g>
<g style="mix-blend-mode:multiply">
<path d="M47.7091 224.228C47.7091 224.228 49.8601 228.029 47.9746 235.178" stroke="#FFF9F7" stroke-width="0.44" stroke-miterlimit="10"/>
</g>
<g style="mix-blend-mode:multiply">
<path d="M67.5904 278.482C67.5904 278.482 82.5588 286.697 87.33 275.018" stroke="#FFF9F7" stroke-width="0.44" stroke-miterlimit="10"/>
</g>
<g style="mix-blend-mode:multiply">
<path d="M80.7353 255.498C80.7353 255.498 82.7182 262.318 77.3893 266.306" stroke="#FFF9F7" stroke-width="0.44" stroke-miterlimit="10"/>
</g>
<g style="mix-blend-mode:multiply">
<path d="M102.36 269.139C102.36 269.139 101.741 282.336 94.978 289.201" stroke="#FFF9F7" stroke-width="0.44" stroke-miterlimit="10"/>
</g>
</g>
<g style="mix-blend-mode:multiply">
<g style="mix-blend-mode:multiply">
<path d="M238.909 245.072C234.536 244.743 232.633 239.281 234.368 235.347C236.103 231.413 240.078 228.784 243.822 226.377C247.566 223.97 251.514 221.288 253.161 217.327C255.878 210.8 251.293 203.598 253.32 196.901C255.347 190.205 262.809 186.564 269.404 183.518C275.998 180.472 283.372 176.067 284.293 169.246C284.629 166.759 284.009 164.246 284.479 161.768C284.948 159.29 287.223 156.671 289.79 157.088C292.357 157.505 293.224 160.338 293.676 162.718C295.027 169.711 296.375 176.703 297.721 183.695C299.226 191.502 300.509 200.338 295.499 207.034C291.126 212.878 282.938 215.56 279.132 221.732C274.131 229.841 278.601 240.8 273.007 248.571C268.793 254.423 260.118 256.084 253.196 254.263C246.274 252.443 240.671 247.922 235.298 243.517" fill="#00875B"/>
</g>
<g style="mix-blend-mode:multiply">
<path d="M288.878 157.745C292.197 167.932 287.993 183.669 281.699 193.011C277.751 198.864 272.121 203.837 269.537 210.285C267.297 215.88 267.598 221.954 266.199 227.745C263.916 237.141 254.692 245.906 245.513 250.249" stroke="#FFF9F7" stroke-width="0.44" stroke-miterlimit="10"/>
</g>
<g style="mix-blend-mode:multiply">
<path d="M271.838 182.07C271.838 182.07 270.333 192.905 276.476 199.619" stroke="#FFF9F7" stroke-width="0.44" stroke-miterlimit="10"/>
</g>
<g style="mix-blend-mode:multiply">
<path d="M266.014 225.898C266.014 225.898 252.851 203.695 255.285 192.985" stroke="#FFF9F7" stroke-width="0.44" stroke-miterlimit="10"/>
</g>
<g style="mix-blend-mode:multiply">
<path d="M287.745 179.761C287.745 179.761 282.664 177.985 284.293 169.246" stroke="#FFF9F7" stroke-width="0.44" stroke-miterlimit="10"/>
</g>
<g style="mix-blend-mode:multiply">
<path d="M261.234 237.239C261.234 237.239 271.307 239.956 275.972 232.7" stroke="#FFF9F7" stroke-width="0.44" stroke-miterlimit="10"/>
</g>
<g style="mix-blend-mode:multiply">
<path d="M254.542 244.494C254.542 244.494 245.406 236.821 247.106 224.281" stroke="#FFF9F7" stroke-width="0.44" stroke-miterlimit="10"/>
</g>
<g style="mix-blend-mode:multiply">
<path d="M299.359 195.889C299.359 195.889 292.224 202.78 272.732 204.095" stroke="#FFF9F7" stroke-width="0.44" stroke-miterlimit="10"/>
</g>
<g style="mix-blend-mode:multiply">
<path d="M294.499 166.582C294.499 166.582 295.207 168.926 290.073 171.795" stroke="#FFF9F7" stroke-width="0.44" stroke-miterlimit="10"/>
</g>
<g style="mix-blend-mode:multiply">
<path d="M296.898 179.805C296.898 179.805 294.092 183.154 286.762 183.855" stroke="#FFF9F7" stroke-width="0.44" stroke-miterlimit="10"/>
</g>
<g style="mix-blend-mode:multiply">
<path d="M253.116 217.328C253.116 217.328 250.629 234.264 263.199 234.699" stroke="#FFF9F7" stroke-width="0.44" stroke-miterlimit="10"/>
</g>
<g style="mix-blend-mode:multiply">
<path d="M279.132 221.732C279.132 221.732 273.44 225.96 267.864 222.327" stroke="#FFF9F7" stroke-width="0.44" stroke-miterlimit="10"/>
</g>
<g style="mix-blend-mode:multiply">
<path d="M273.874 246.812C273.874 246.812 261.322 250.809 252.568 246.812" stroke="#FFF9F7" stroke-width="0.44" stroke-miterlimit="10"/>
</g>
</g>
<g style="mix-blend-mode:multiply" opacity="0.71">
<path d="M236.094 110.632C266.566 110.632 291.268 85.9796 291.268 55.5697C291.268 25.1599 266.566 0.507812 236.094 0.507812C205.623 0.507812 180.921 25.1599 180.921 55.5697C180.921 85.9796 205.623 110.632 236.094 110.632Z" fill="#FF8788"/>
</g>
<g style="mix-blend-mode:multiply">
<path style="mix-blend-mode:multiply" d="M145.602 34.0512C145.104 32.994 144.819 31.8488 144.763 30.681C144.706 29.5133 144.88 28.3458 145.273 27.2453C146.067 25.0227 147.709 23.2077 149.837 22.1996C151.966 21.1915 154.406 21.0728 156.621 21.8698C157.718 22.2644 158.727 22.8719 159.59 23.6576C160.452 24.4433 161.153 25.3919 161.65 26.4491C161.715 24.224 162.536 22.088 163.976 20.3947C165.417 18.7014 167.39 17.5525 169.57 17.138C171.75 16.7236 174.006 17.0686 175.964 18.1158C177.922 19.1631 179.464 20.8498 180.336 22.8967C179.77 18.9536 182.886 15.0104 186.763 14.1845C190.64 13.3586 194.818 15.3568 197.075 18.625C198.15 20.302 198.863 22.1862 199.168 24.1563C199.472 26.1264 199.363 28.1387 198.846 30.0637C198.438 31.7066 197.695 33.4118 196.19 34.2377C194.983 34.7802 193.657 35.0005 192.34 34.8771" fill="url(#paint5_linear)"/>
</g>
<path d="M89.6049 346.634L56.6672 100.632C56.388 98.5307 56.9521 96.4046 58.2352 94.7208C59.5184 93.037 61.4156 91.9335 63.5097 91.653L234.421 68.6158C235.458 68.4758 236.512 68.5421 237.524 68.8109C238.535 69.0797 239.484 69.5457 240.316 70.1824C241.148 70.8191 241.846 71.6139 242.372 72.5214C242.898 73.429 243.24 74.4316 243.379 75.4719L276.308 321.474C276.448 322.515 276.382 323.572 276.114 324.587C275.846 325.602 275.381 326.554 274.747 327.388C274.112 328.223 273.32 328.924 272.415 329.451C271.511 329.979 270.512 330.322 269.475 330.462L98.563 353.49C97.5261 353.63 96.4719 353.564 95.4605 353.295C94.4491 353.026 93.5004 352.56 92.6686 351.924C91.8368 351.287 91.138 350.492 90.6124 349.585C90.0867 348.677 89.7444 347.674 89.6049 346.634Z" fill="#959595"/>
<path d="M274.482 320.335L241.913 77.0593C241.327 72.6842 237.317 69.614 232.956 70.2016L65.338 92.7896C60.9773 93.3772 57.9171 97.4003 58.5028 101.775L91.0718 345.051C91.6575 349.426 95.6674 352.497 100.028 351.909L267.646 329.321C272.007 328.733 275.067 324.71 274.482 320.335Z" fill="url(#paint6_linear)"/>
<path d="M253.745 312.413L223.993 90.1732L79.2369 109.68L108.99 331.92L253.745 312.413Z" fill="white"/>
<path opacity="0.17" d="M174.786 343.766L123.295 350.213L158.384 78.8734L209.884 72.4258L174.786 343.766Z" fill="white"/>
<path d="M147.045 94.0598C146.529 94.0801 146.019 93.9494 145.576 93.6835C145.133 93.4175 144.777 93.028 144.552 92.5624C144.326 92.0968 144.241 91.5754 144.306 91.0618C144.371 90.5483 144.584 90.0648 144.918 89.6706C145.252 89.2764 145.694 88.9885 146.189 88.8421C146.684 88.6957 147.211 88.697 147.705 88.8461C148.199 88.9951 148.639 89.2854 148.971 89.6814C149.304 90.0774 149.514 90.5619 149.576 91.0758C149.633 91.8078 149.398 92.5324 148.924 93.0915C148.449 93.6505 147.774 93.9986 147.045 94.0598Z" fill="#333333"/>
<path d="M201.351 156.576L121.402 167.749C118.938 168.093 117.218 170.377 117.562 172.849L117.625 173.307C117.968 175.779 120.245 177.505 122.709 177.16L202.657 165.987C205.122 165.643 206.842 163.359 206.498 160.886L206.435 160.429C206.091 157.956 203.815 156.231 201.351 156.576Z" fill="url(#paint7_linear)"/>
<path d="M203.689 173.427L123.741 184.6C121.276 184.944 119.557 187.228 119.9 189.7L119.964 190.158C120.307 192.631 122.583 194.356 125.048 194.011L204.996 182.838C207.461 182.494 209.18 180.21 208.837 177.738L208.773 177.28C208.43 174.807 206.154 173.082 203.689 173.427Z" fill="url(#paint8_linear)"/>
<path d="M206.027 190.26L126.078 201.433C123.614 201.777 121.894 204.061 122.238 206.534L122.301 206.991C122.644 209.464 124.921 211.189 127.385 210.845L207.333 199.672C209.798 199.327 211.518 197.044 211.174 194.571L211.111 194.114C210.767 191.641 208.491 189.916 206.027 190.26Z" fill="url(#paint9_linear)"/>
<path d="M208.365 207.111L128.417 218.284C125.952 218.628 124.233 220.912 124.576 223.385L124.64 223.842C124.983 226.315 127.259 228.04 129.724 227.696L209.672 216.523C212.136 216.178 213.856 213.895 213.513 211.422L213.449 210.965C213.106 208.492 210.83 206.767 208.365 207.111Z" fill="url(#paint10_linear)"/>
<path d="M210.636 223.46L130.688 234.633C128.223 234.978 126.504 237.261 126.847 239.734L126.91 240.192C127.254 242.664 129.53 244.39 131.995 244.045L211.943 232.872C214.407 232.528 216.127 230.244 215.784 227.771L215.72 227.314C215.377 224.841 213.101 223.116 210.636 223.46Z" fill="url(#paint11_linear)"/>
<path d="M202.579 273.167L147.639 281.061L149.271 292.499L204.212 284.605L202.579 273.167Z" fill="url(#paint12_linear)"/>
<path d="M163.035 286.817L162.668 284.244L164.294 284.011L164.329 284.256L162.996 284.448L163.124 285.344L164.385 285.163L164.42 285.412L163.159 285.593L163.293 286.529L164.626 286.338L164.661 286.583L163.035 286.817ZM165.164 286.511L164.857 286.555L165.621 283.82L165.881 283.783L167.379 286.193L167.075 286.237L165.731 284.025L165.839 284.01L165.164 286.511ZM165.243 285.825L165.313 285.564L166.664 285.37L166.804 285.601L165.243 285.825ZM168.081 286.092L167.75 283.772L166.854 283.901L166.818 283.648L168.91 283.347L168.946 283.6L168.05 283.729L168.381 286.049L168.081 286.092ZM169.637 285.869L169.269 283.296L170.895 283.062L170.93 283.308L169.597 283.499L169.725 284.396L170.986 284.214L171.022 284.464L169.761 284.645L169.894 285.581L171.227 285.389L171.262 285.635L169.637 285.869ZM163.796 291.759L163.489 291.803L164.253 289.068L164.513 289.031L166.011 291.441L165.707 291.484L164.363 289.273L164.471 289.258L163.796 291.759ZM163.875 291.073L163.945 290.812L165.296 290.618L165.436 290.849L163.875 291.073ZM167.409 291.269C167.164 291.305 166.944 291.282 166.751 291.202C166.557 291.121 166.398 290.989 166.274 290.806C166.149 290.622 166.068 290.394 166.029 290.122C165.99 289.85 166.005 289.609 166.073 289.4C166.142 289.191 166.258 289.021 166.421 288.889C166.584 288.758 166.788 288.674 167.034 288.639C167.21 288.614 167.376 288.618 167.533 288.652C167.69 288.683 167.831 288.746 167.955 288.838L167.875 289.082C167.737 288.994 167.605 288.935 167.478 288.907C167.351 288.878 167.216 288.874 167.074 288.895C166.792 288.935 166.586 289.058 166.456 289.264C166.328 289.469 166.288 289.74 166.336 290.078C166.384 290.417 166.499 290.669 166.68 290.832C166.86 290.993 167.092 291.053 167.376 291.012C167.518 290.992 167.646 290.95 167.76 290.887C167.874 290.824 167.985 290.731 168.093 290.607L168.237 290.819C168.144 290.943 168.027 291.043 167.886 291.12C167.744 291.194 167.585 291.244 167.409 291.269ZM169.837 290.921C169.591 290.956 169.372 290.933 169.178 290.853C168.985 290.773 168.826 290.641 168.701 290.457C168.577 290.273 168.495 290.045 168.456 289.773C168.417 289.501 168.432 289.26 168.501 289.051C168.569 288.842 168.685 288.672 168.848 288.54C169.011 288.409 169.216 288.325 169.461 288.29C169.637 288.265 169.804 288.269 169.961 288.303C170.118 288.335 170.258 288.397 170.382 288.49L170.303 288.733C170.165 288.645 170.032 288.587 169.905 288.558C169.778 288.53 169.644 288.526 169.502 288.546C169.22 288.587 169.014 288.71 168.883 288.915C168.755 289.12 168.715 289.392 168.763 289.729C168.812 290.069 168.926 290.32 169.107 290.483C169.287 290.644 169.52 290.704 169.804 290.664C169.946 290.643 170.074 290.601 170.188 290.538C170.302 290.475 170.412 290.382 170.52 290.258L170.665 290.47C170.572 290.594 170.455 290.694 170.313 290.771C170.171 290.845 170.013 290.895 169.837 290.921ZM172.243 290.575C172.002 290.61 171.786 290.586 171.595 290.506C171.406 290.425 171.25 290.292 171.125 290.109C171.003 289.925 170.923 289.698 170.884 289.428C170.845 289.156 170.859 288.915 170.925 288.707C170.991 288.496 171.103 288.325 171.261 288.194C171.422 288.062 171.624 287.979 171.867 287.944C172.108 287.91 172.324 287.933 172.515 288.014C172.706 288.094 172.862 288.227 172.984 288.411C173.106 288.592 173.186 288.818 173.225 289.088C173.264 289.36 173.249 289.602 173.181 289.813C173.115 290.024 173.002 290.195 172.841 290.327C172.683 290.458 172.483 290.54 172.243 290.575ZM172.206 290.322C172.479 290.283 172.677 290.161 172.803 289.956C172.928 289.749 172.967 289.474 172.918 289.132C172.869 288.79 172.756 288.539 172.578 288.381C172.4 288.219 172.175 288.158 171.903 288.197C171.631 288.236 171.431 288.359 171.303 288.564C171.177 288.769 171.139 289.041 171.187 289.381C171.236 289.72 171.349 289.972 171.527 290.136C171.708 290.299 171.934 290.361 172.206 290.322ZM174.961 290.184C174.626 290.232 174.36 290.182 174.162 290.034C173.963 289.883 173.839 289.636 173.791 289.294L173.567 287.73L173.86 287.688L174.087 289.277C174.123 289.53 174.212 289.712 174.353 289.822C174.493 289.93 174.684 289.966 174.925 289.931C175.161 289.897 175.331 289.808 175.436 289.663C175.541 289.517 175.575 289.319 175.539 289.069L175.312 287.479L175.609 287.436L175.832 289.001C175.88 289.341 175.83 289.611 175.682 289.812C175.534 290.012 175.293 290.137 174.961 290.184ZM176.595 289.92L176.228 287.347L176.456 287.315L178.408 289.265L178.324 289.299L178.009 287.091L178.291 287.051L178.658 289.624L178.427 289.657L176.479 287.71L176.558 287.672L176.873 289.88L176.595 289.92ZM179.912 289.443L179.581 287.124L178.685 287.252L178.649 286.999L180.741 286.699L180.777 286.952L179.881 287.081L180.212 289.4L179.912 289.443Z" fill="white"/>
<path d="M155.853 302.98L155.691 301.847C155.681 301.774 155.668 301.702 155.654 301.629C155.641 301.554 155.624 301.481 155.603 301.41L155.844 301.375L155.934 301.758L155.898 301.754C155.908 301.612 155.956 301.5 156.042 301.417C156.13 301.332 156.234 301.281 156.355 301.263C156.382 301.26 156.407 301.258 156.431 301.259C156.456 301.257 156.48 301.258 156.501 301.262L156.528 301.494C156.478 301.484 156.421 301.484 156.359 301.493C156.25 301.508 156.166 301.545 156.106 301.602C156.049 301.66 156.009 301.728 155.989 301.808C155.97 301.885 155.967 301.964 155.978 302.045L156.106 302.943L155.853 302.98ZM158.218 302.448C158.158 302.523 158.077 302.587 157.974 302.64C157.873 302.693 157.766 302.727 157.653 302.743C157.49 302.767 157.345 302.755 157.217 302.707C157.091 302.659 156.987 302.579 156.905 302.468C156.825 302.354 156.773 302.212 156.749 302.043C156.726 301.881 156.736 301.733 156.781 301.601C156.826 301.469 156.899 301.361 157 301.276C157.103 301.191 157.227 301.138 157.373 301.117C157.513 301.097 157.637 301.111 157.746 301.159C157.855 301.205 157.944 301.282 158.012 301.389C158.083 301.496 158.129 301.63 158.152 301.79L158.159 301.837L156.97 302.008L156.947 301.842L157.991 301.692L157.927 301.82C157.905 301.636 157.848 301.5 157.757 301.413C157.668 301.326 157.55 301.293 157.404 301.314C157.252 301.336 157.14 301.407 157.068 301.528C156.998 301.647 156.976 301.801 157.003 301.991C157.032 302.195 157.099 302.343 157.204 302.434C157.31 302.525 157.451 302.558 157.626 302.533C157.718 302.52 157.804 302.493 157.883 302.452C157.964 302.408 158.038 302.35 158.107 302.276L158.218 302.448ZM159.264 302.512C159.124 302.532 158.996 302.517 158.881 302.468C158.767 302.416 158.672 302.334 158.597 302.221C158.523 302.107 158.474 301.967 158.451 301.802C158.427 301.637 158.436 301.489 158.477 301.358C158.517 301.226 158.585 301.119 158.679 301.035C158.776 300.951 158.893 300.899 159.031 300.879C159.175 300.858 159.302 300.876 159.412 300.933C159.522 300.989 159.604 301.081 159.658 301.207L159.625 301.237L159.568 300.84L159.818 300.804L160.043 302.378L159.792 302.414L159.734 302.007L159.775 302.02C159.758 302.157 159.705 302.268 159.615 302.353C159.525 302.438 159.408 302.491 159.264 302.512ZM159.284 302.295C159.438 302.273 159.55 302.204 159.618 302.087C159.686 301.969 159.707 301.813 159.679 301.619C159.651 301.425 159.587 301.282 159.487 301.19C159.389 301.098 159.263 301.063 159.111 301.084C158.957 301.107 158.844 301.178 158.772 301.299C158.701 301.418 158.68 301.573 158.707 301.765C158.735 301.957 158.798 302.099 158.899 302.191C159.001 302.283 159.13 302.317 159.284 302.295ZM161.918 302.108L161.668 302.144L161.608 301.722L161.65 301.751C161.633 301.887 161.58 301.998 161.49 302.083C161.4 302.169 161.283 302.222 161.139 302.242C161.002 302.262 160.875 302.246 160.759 302.195C160.645 302.141 160.55 302.057 160.474 301.942C160.398 301.825 160.348 301.685 160.324 301.52C160.301 301.355 160.309 301.208 160.348 301.079C160.389 300.95 160.457 300.844 160.551 300.763C160.648 300.681 160.767 300.63 160.906 300.609C161.05 300.589 161.177 300.608 161.288 300.666C161.398 300.723 161.48 300.813 161.534 300.937L161.498 300.975L161.336 299.842L161.59 299.806L161.918 302.108ZM161.159 302.026C161.312 302.004 161.422 301.935 161.491 301.818C161.561 301.7 161.582 301.543 161.555 301.35C161.527 301.158 161.464 301.016 161.366 300.923C161.267 300.829 161.141 300.793 160.987 300.815C160.832 300.837 160.719 300.907 160.646 301.024C160.576 301.14 160.554 301.293 160.581 301.483C160.609 301.677 160.673 301.822 160.774 301.918C160.877 302.012 161.005 302.048 161.159 302.026ZM162.434 302.759L162.353 302.569C162.446 302.533 162.522 302.494 162.582 302.453C162.645 302.415 162.695 302.368 162.732 302.314C162.771 302.259 162.801 302.19 162.823 302.106L162.89 301.86L162.935 301.774L163.313 300.302L163.566 300.266L163.076 302.089C163.038 302.224 162.989 302.334 162.929 302.42C162.869 302.507 162.797 302.577 162.713 302.629C162.631 302.682 162.538 302.725 162.434 302.759ZM162.92 302.047L161.977 300.494L162.243 300.456L163.01 301.763L162.92 302.047ZM164.885 301.682L164.557 299.379L164.81 299.343L164.96 300.391L164.923 300.428C164.949 300.295 165.008 300.188 165.101 300.109C165.194 300.027 165.307 299.977 165.44 299.958C165.818 299.904 166.036 300.084 166.095 300.499L166.237 301.488L165.983 301.524L165.844 300.548C165.823 300.402 165.779 300.3 165.711 300.242C165.643 300.181 165.546 300.16 165.421 300.178C165.275 300.199 165.164 300.26 165.09 300.363C165.015 300.465 164.988 300.592 165.01 300.745L165.139 301.645L164.885 301.682ZM167.322 301.354C167.182 301.374 167.054 301.36 166.939 301.31C166.825 301.258 166.73 301.176 166.655 301.064C166.581 300.949 166.532 300.809 166.509 300.644C166.485 300.479 166.494 300.331 166.535 300.2C166.575 300.068 166.643 299.961 166.737 299.877C166.834 299.793 166.951 299.741 167.089 299.721C167.233 299.7 167.36 299.718 167.47 299.775C167.58 299.831 167.662 299.923 167.716 300.049L167.682 300.08L167.626 299.682L167.876 299.646L168.101 301.22L167.85 301.256L167.792 300.849L167.833 300.863C167.816 300.999 167.763 301.11 167.673 301.195C167.583 301.28 167.466 301.333 167.322 301.354ZM167.342 301.137C167.496 301.115 167.608 301.046 167.676 300.93C167.744 300.811 167.765 300.655 167.737 300.461C167.709 300.267 167.645 300.124 167.545 300.032C167.447 299.94 167.321 299.905 167.169 299.927C167.015 299.949 166.902 300.02 166.829 300.141C166.759 300.26 166.738 300.415 166.765 300.607C166.792 300.799 166.856 300.941 166.957 301.033C167.059 301.125 167.188 301.16 167.342 301.137ZM169.053 301.083L168.16 299.609L168.426 299.571L169.193 300.875L169.118 300.885L169.495 299.417L169.749 299.38L169.294 301.048L169.053 301.083ZM171.496 300.541C171.436 300.615 171.355 300.679 171.252 300.732C171.151 300.785 171.044 300.819 170.931 300.835C170.769 300.859 170.623 300.847 170.495 300.799C170.369 300.751 170.265 300.672 170.183 300.56C170.103 300.446 170.051 300.304 170.027 300.135C170.004 299.973 170.015 299.825 170.06 299.693C170.105 299.561 170.178 299.453 170.278 299.368C170.381 299.283 170.505 299.23 170.651 299.209C170.791 299.189 170.915 299.203 171.024 299.251C171.133 299.298 171.222 299.374 171.29 299.481C171.361 299.588 171.408 299.722 171.431 299.883L171.437 299.93L170.249 300.1L170.225 299.935L171.27 299.784L171.205 299.912C171.183 299.728 171.126 299.592 171.035 299.505C170.946 299.418 170.829 299.385 170.683 299.406C170.53 299.428 170.418 299.499 170.346 299.62C170.276 299.739 170.254 299.893 170.281 300.083C170.31 300.287 170.377 300.435 170.482 300.527C170.588 300.618 170.729 300.651 170.905 300.625C170.996 300.612 171.082 300.585 171.161 300.544C171.242 300.5 171.317 300.442 171.385 300.368L171.496 300.541ZM173.358 300.487C173.218 300.507 173.09 300.492 172.975 300.443C172.861 300.391 172.766 300.309 172.691 300.196C172.617 300.081 172.568 299.942 172.544 299.777C172.521 299.612 172.53 299.464 172.57 299.333C172.611 299.201 172.679 299.094 172.773 299.01C172.87 298.926 172.987 298.874 173.125 298.854C173.268 298.833 173.395 298.851 173.506 298.908C173.616 298.964 173.698 299.056 173.752 299.182L173.718 299.212L173.662 298.815L173.912 298.779L174.136 300.353L173.886 300.389L173.828 299.982L173.868 299.995C173.852 300.132 173.798 300.243 173.708 300.328C173.618 300.413 173.501 300.466 173.358 300.487ZM173.378 300.27C173.532 300.248 173.643 300.179 173.712 300.062C173.78 299.944 173.8 299.788 173.773 299.594C173.745 299.4 173.681 299.257 173.581 299.165C173.482 299.073 173.357 299.038 173.205 299.059C173.051 299.082 172.937 299.153 172.865 299.274C172.795 299.393 172.774 299.548 172.801 299.74C172.828 299.932 172.892 300.074 172.993 300.166C173.095 300.258 173.223 300.292 173.378 300.27ZM174.626 300.282L174.465 299.15C174.454 299.077 174.442 299.004 174.427 298.932C174.414 298.857 174.398 298.784 174.377 298.712L174.618 298.678L174.692 298.999L174.664 299.029C174.69 298.895 174.749 298.789 174.842 298.709C174.935 298.628 175.048 298.578 175.181 298.558C175.559 298.504 175.777 298.685 175.836 299.1L175.978 300.088L175.724 300.125L175.585 299.148C175.564 299.002 175.52 298.9 175.452 298.842C175.384 298.782 175.287 298.76 175.162 298.778C175.016 298.799 174.905 298.861 174.831 298.963C174.756 299.065 174.729 299.193 174.751 299.345L174.88 300.246L174.626 300.282ZM177.878 299.837C177.739 299.857 177.611 299.843 177.495 299.793C177.382 299.742 177.287 299.659 177.211 299.547C177.137 299.432 177.089 299.292 177.065 299.127C177.042 298.963 177.05 298.814 177.091 298.683C177.132 298.552 177.2 298.444 177.294 298.36C177.391 298.276 177.508 298.224 177.645 298.204C177.789 298.184 177.916 298.202 178.026 298.258C178.137 298.315 178.219 298.406 178.273 298.532L178.239 298.563L178.182 298.166L178.433 298.13L178.657 299.703L178.407 299.739L178.349 299.332L178.389 299.346C178.372 299.482 178.319 299.593 178.229 299.678C178.139 299.764 178.022 299.817 177.878 299.837ZM177.898 299.621C178.053 299.598 178.164 299.529 178.233 299.413C178.301 299.295 178.321 299.138 178.294 298.944C178.266 298.75 178.202 298.608 178.101 298.516C178.003 298.423 177.878 298.388 177.726 298.41C177.571 298.432 177.458 298.504 177.386 298.625C177.316 298.743 177.294 298.899 177.322 299.09C177.349 299.282 177.413 299.424 177.513 299.516C177.616 299.608 177.744 299.643 177.898 299.621ZM179.81 299.56C179.656 299.582 179.518 299.568 179.396 299.517C179.273 299.467 179.172 299.385 179.093 299.273C179.015 299.161 178.964 299.023 178.941 298.858C178.917 298.695 178.928 298.548 178.973 298.416C179.018 298.282 179.093 298.172 179.198 298.087C179.303 298.001 179.433 297.947 179.59 297.925C179.696 297.91 179.801 297.914 179.904 297.937C180.009 297.958 180.099 297.997 180.173 298.052L180.115 298.252C180.029 298.202 179.947 298.168 179.867 298.15C179.79 298.129 179.712 298.125 179.632 298.136C179.474 298.159 179.355 298.23 179.277 298.35C179.2 298.469 179.176 298.626 179.203 298.82C179.231 299.012 179.298 299.153 179.404 299.245C179.511 299.336 179.645 299.37 179.805 299.347C179.882 299.335 179.956 299.31 180.027 299.27C180.098 299.228 180.168 299.171 180.236 299.1L180.347 299.275C180.289 299.347 180.212 299.409 180.115 299.462C180.02 299.511 179.919 299.544 179.81 299.56ZM181.359 299.337C181.205 299.359 181.066 299.345 180.944 299.295C180.822 299.244 180.721 299.163 180.641 299.051C180.564 298.939 180.513 298.8 180.489 298.635C180.466 298.473 180.477 298.325 180.522 298.193C180.567 298.059 180.641 297.949 180.746 297.864C180.851 297.779 180.982 297.725 181.138 297.702C181.245 297.687 181.349 297.691 181.453 297.715C181.558 297.736 181.647 297.774 181.721 297.829L181.664 298.029C181.578 297.98 181.495 297.946 181.416 297.928C181.339 297.907 181.26 297.902 181.181 297.913C181.023 297.936 180.904 298.007 180.825 298.127C180.749 298.247 180.724 298.404 180.752 298.598C180.779 298.789 180.847 298.931 180.953 299.022C181.06 299.113 181.193 299.147 181.354 299.124C181.431 299.113 181.505 299.087 181.576 299.047C181.647 299.005 181.716 298.949 181.785 298.877L181.896 299.053C181.838 299.125 181.761 299.187 181.664 299.239C181.569 299.289 181.467 299.322 181.359 299.337ZM182.898 299.116C182.748 299.138 182.612 299.123 182.49 299.073C182.37 299.022 182.27 298.94 182.19 298.828C182.112 298.714 182.061 298.573 182.037 298.407C182.014 298.242 182.023 298.094 182.066 297.962C182.111 297.83 182.184 297.722 182.285 297.64C182.388 297.557 182.515 297.505 182.665 297.483C182.815 297.462 182.95 297.476 183.07 297.527C183.192 297.578 183.293 297.66 183.371 297.774C183.451 297.888 183.502 298.028 183.526 298.193C183.55 298.359 183.539 298.509 183.494 298.641C183.451 298.771 183.378 298.877 183.275 298.96C183.174 299.042 183.048 299.095 182.898 299.116ZM182.868 298.906C183.023 298.884 183.134 298.816 183.203 298.702C183.274 298.585 183.295 298.428 183.266 298.23C183.239 298.036 183.175 297.893 183.074 297.801C182.974 297.709 182.848 297.674 182.695 297.696C182.543 297.718 182.431 297.787 182.358 297.904C182.287 298.02 182.266 298.176 182.294 298.37C182.322 298.568 182.385 298.713 182.483 298.805C182.584 298.895 182.712 298.929 182.868 298.906ZM184.594 298.872C184.407 298.899 184.257 298.868 184.147 298.777C184.038 298.686 183.969 298.539 183.94 298.334L183.8 297.358L184.054 297.322L184.192 298.292C184.212 298.433 184.256 298.534 184.324 298.592C184.392 298.65 184.486 298.671 184.605 298.654C184.744 298.634 184.85 298.573 184.923 298.471C184.996 298.369 185.021 298.243 185 298.093L184.873 297.204L185.127 297.168L185.351 298.741L185.104 298.777L185.055 298.436L185.09 298.412C185.066 298.543 185.009 298.648 184.918 298.727C184.829 298.806 184.721 298.854 184.594 298.872ZM185.84 298.671L185.678 297.539C185.668 297.466 185.655 297.393 185.64 297.321C185.628 297.246 185.611 297.173 185.59 297.101L185.831 297.067L185.905 297.388L185.878 297.417C185.903 297.284 185.963 297.177 186.056 297.098C186.148 297.017 186.261 296.966 186.395 296.947C186.772 296.893 186.991 297.073 187.05 297.488L187.191 298.477L186.938 298.513L186.798 297.537C186.777 297.391 186.733 297.289 186.665 297.231C186.597 297.17 186.5 297.149 186.375 297.167C186.229 297.188 186.119 297.25 186.044 297.352C185.969 297.454 185.943 297.582 185.964 297.734L186.093 298.635L185.84 298.671ZM187.251 297.067L187.223 296.867L188.233 296.721L188.262 296.922L187.251 297.067ZM188.419 298.071L188.45 298.286C188.416 298.302 188.382 298.314 188.347 298.324C188.314 298.335 188.277 298.343 188.235 298.349C188.089 298.37 187.967 298.345 187.867 298.274C187.77 298.203 187.709 298.084 187.685 297.917L187.472 296.419L187.712 296.292L187.934 297.847C187.946 297.93 187.966 297.993 187.996 298.036C188.028 298.078 188.066 298.105 188.11 298.118C188.154 298.129 188.202 298.131 188.254 298.123C188.286 298.119 188.313 298.112 188.338 298.105C188.362 298.097 188.389 298.086 188.419 298.071ZM188.498 296.109C188.561 296.059 188.63 296.019 188.705 295.99C188.781 295.959 188.855 295.939 188.926 295.929C189.047 295.912 189.155 295.917 189.251 295.946C189.348 295.975 189.428 296.022 189.488 296.088C189.549 296.154 189.586 296.237 189.6 296.337C189.614 296.433 189.607 296.521 189.58 296.601C189.556 296.681 189.52 296.758 189.473 296.831C189.427 296.901 189.38 296.973 189.331 297.046C189.284 297.118 189.245 297.195 189.214 297.276C189.183 297.355 189.17 297.443 189.175 297.541L189.174 297.598L189.024 297.62L189.012 297.542C188.997 297.433 188.999 297.336 189.019 297.25C189.041 297.164 189.071 297.085 189.109 297.014C189.148 296.942 189.187 296.874 189.227 296.808C189.266 296.741 189.297 296.674 189.32 296.607C189.344 296.539 189.351 296.467 189.34 296.39C189.327 296.3 189.285 296.234 189.215 296.191C189.145 296.148 189.055 296.134 188.945 296.15C188.876 296.16 188.806 296.182 188.734 296.215C188.664 296.247 188.596 296.289 188.532 296.343L188.498 296.109ZM189.022 298.214L188.976 297.892L189.298 297.845L189.344 298.168L189.022 298.214Z" fill="black"/>
<path d="M157.16 306.858C157.045 306.875 156.936 306.881 156.834 306.877C156.731 306.87 156.633 306.852 156.542 306.823C156.45 306.791 156.365 306.749 156.288 306.696L156.357 306.485C156.483 306.563 156.605 306.614 156.723 306.637C156.843 306.66 156.98 306.661 157.132 306.639C157.309 306.614 157.442 306.559 157.53 306.476C157.618 306.391 157.653 306.285 157.635 306.158C157.624 306.081 157.59 306.023 157.533 305.984C157.478 305.943 157.406 305.915 157.317 305.901C157.229 305.883 157.131 305.87 157.021 305.86C156.911 305.852 156.806 305.841 156.706 305.825C156.606 305.808 156.515 305.782 156.433 305.747C156.353 305.711 156.288 305.661 156.236 305.596C156.184 305.531 156.151 305.446 156.135 305.339C156.117 305.212 156.135 305.096 156.188 304.99C156.241 304.882 156.323 304.793 156.437 304.721C156.55 304.65 156.689 304.602 156.854 304.578C156.956 304.564 157.055 304.561 157.153 304.571C157.249 304.578 157.34 304.597 157.426 304.627C157.513 304.657 157.592 304.698 157.663 304.749L157.591 304.961C157.476 304.886 157.362 304.835 157.247 304.809C157.133 304.783 157.012 304.779 156.885 304.797C156.712 304.822 156.581 304.878 156.494 304.965C156.406 305.052 156.372 305.162 156.391 305.293C156.402 305.374 156.433 305.437 156.484 305.481C156.535 305.524 156.603 305.556 156.686 305.576C156.77 305.594 156.864 305.608 156.97 305.618C157.082 305.628 157.19 305.64 157.295 305.655C157.399 305.67 157.493 305.693 157.576 305.726C157.661 305.756 157.732 305.803 157.787 305.865C157.843 305.925 157.878 306.007 157.893 306.111C157.911 306.239 157.893 306.354 157.84 306.457C157.787 306.561 157.702 306.648 157.587 306.717C157.471 306.787 157.329 306.834 157.16 306.858ZM158.367 306.659L158.142 305.086L158.396 305.05L158.62 306.623L158.367 306.659ZM158.022 304.423L158.332 304.379L158.373 304.667L158.063 304.711L158.022 304.423ZM159.112 306.552L158.951 305.42C158.94 305.347 158.928 305.274 158.913 305.202C158.9 305.127 158.884 305.054 158.863 304.982L159.104 304.948L159.178 305.269L159.15 305.299C159.176 305.165 159.235 305.059 159.328 304.979C159.421 304.898 159.534 304.848 159.667 304.829C160.045 304.774 160.263 304.955 160.322 305.37L160.464 306.358L160.21 306.395L160.071 305.419C160.05 305.273 160.006 305.17 159.938 305.112C159.87 305.052 159.773 305.03 159.648 305.048C159.502 305.069 159.391 305.131 159.317 305.233C159.242 305.336 159.215 305.463 159.237 305.615L159.366 306.516L159.112 306.552ZM161.733 306.888C161.495 306.922 161.281 306.897 161.09 306.814L161.105 306.601C161.211 306.644 161.309 306.671 161.4 306.683C161.492 306.696 161.592 306.694 161.703 306.678C161.853 306.657 161.961 306.6 162.026 306.507C162.094 306.417 162.117 306.292 162.094 306.134L162.034 305.708L162.062 305.662C162.049 305.749 162.02 305.828 161.975 305.899C161.931 305.966 161.873 306.023 161.801 306.067C161.728 306.112 161.643 306.141 161.545 306.155C161.406 306.175 161.278 306.16 161.162 306.111C161.048 306.059 160.953 305.979 160.876 305.871C160.801 305.763 160.752 305.63 160.73 305.474C160.707 305.318 160.717 305.177 160.759 305.052C160.803 304.926 160.872 304.824 160.967 304.744C161.064 304.662 161.182 304.611 161.322 304.591C161.468 304.57 161.596 304.589 161.707 304.647C161.819 304.703 161.902 304.794 161.956 304.918L161.914 304.889L161.865 304.551L162.119 304.515L162.341 306.076C162.375 306.311 162.34 306.497 162.236 306.634C162.134 306.769 161.966 306.854 161.733 306.888ZM161.565 305.935C161.717 305.913 161.829 305.846 161.9 305.734C161.973 305.619 161.997 305.473 161.972 305.296C161.946 305.118 161.883 304.986 161.781 304.898C161.681 304.808 161.555 304.774 161.402 304.796C161.248 304.819 161.133 304.887 161.058 305.002C160.985 305.115 160.961 305.26 160.986 305.437C161.012 305.617 161.076 305.75 161.177 305.837C161.281 305.925 161.411 305.957 161.565 305.935ZM163.645 305.901L163.421 304.328L163.674 304.291L163.899 305.865L163.645 305.901ZM163.301 303.665L163.61 303.62L163.651 303.908L163.342 303.953L163.301 303.665ZM164.391 305.794L164.229 304.662C164.219 304.589 164.206 304.516 164.191 304.443C164.179 304.369 164.162 304.296 164.141 304.224L164.382 304.189L164.456 304.511L164.429 304.54C164.454 304.407 164.514 304.3 164.607 304.221C164.699 304.14 164.812 304.089 164.946 304.07C165.323 304.016 165.541 304.196 165.601 304.611L165.742 305.6L165.488 305.636L165.349 304.66C165.328 304.514 165.284 304.412 165.216 304.354C165.148 304.293 165.051 304.272 164.926 304.29C164.78 304.311 164.67 304.373 164.595 304.475C164.52 304.577 164.494 304.704 164.515 304.857L164.644 305.758L164.391 305.794Z" fill="#FF8586"/>
<path d="M183.523 220.169C183.523 220.169 178.345 210.471 173.857 208.74C173.857 208.74 172.131 205.454 176.796 207.185C176.069 206.685 175.523 205.962 175.238 205.125C175.215 205.062 175.209 204.995 175.219 204.929C175.23 204.863 175.256 204.8 175.297 204.747C175.337 204.694 175.39 204.652 175.451 204.625C175.512 204.598 175.579 204.587 175.645 204.592C177.734 204.716 184.877 206.031 187.666 218.091L183.7 221.04" fill="#FFB2B6"/>
<path d="M241.963 363.961H247.115V361.172H241.963V363.961Z" fill="white"/>
<path d="M209.583 363.961H214.735V361.172H209.583V363.961Z" fill="white"/>
<path d="M247.496 363.215V367.078H235.306C235.306 367.078 233.271 360.693 247.496 363.215Z" fill="white"/>
<path d="M215.053 363.215V367.078H202.856C202.856 367.078 200.846 360.693 215.053 363.215Z" fill="white"/>
<path d="M244.689 276.333L243.07 327.016C243.031 328.267 243.108 329.519 243.3 330.755L248.044 361.279H238.821L232.385 329.405C232.205 328.506 232.087 327.595 232.031 326.679L230.128 296.421C230.128 296.33 230.096 296.242 230.037 296.173C229.977 296.103 229.896 296.057 229.806 296.044C229.716 296.03 229.624 296.048 229.547 296.097C229.469 296.145 229.412 296.219 229.385 296.306L219.515 322.38C219.258 323.078 219.091 323.807 219.019 324.547L215.77 361.279H207.804L207.397 321.368C207.383 320.771 207.44 320.175 207.565 319.592L216.602 275.88L244.689 276.333Z" fill="url(#paint13_linear)"/>
<path d="M217.443 244.477L199.474 242.23C198.568 242.209 197.677 241.995 196.861 241.602C196.044 241.208 195.32 240.644 194.738 239.947L180.629 220.756L189.047 214.832L199.775 229.788C200.336 230.574 201.066 231.222 201.913 231.683C202.759 232.145 203.699 232.408 204.661 232.452L243.176 229.939L247.602 285.746L213.469 281.67L217.443 244.477Z" fill="#00AEE0"/>
<path d="M243.955 236.173L258.613 257.034C259.506 258.306 259.86 259.881 259.598 261.414C259.336 262.947 258.479 264.313 257.215 265.214L242.901 275.391L237.245 266.555L248.39 260.471C248.46 260.432 248.52 260.377 248.566 260.311C248.612 260.246 248.643 260.17 248.655 260.09C248.668 260.011 248.663 259.93 248.64 259.853C248.617 259.775 248.577 259.705 248.522 259.645L239.343 249.628L240.184 234.912L241.857 233.233L243.955 236.173Z" fill="#00AEE0"/>
<path d="M221.489 213.802C220.248 214.994 219.16 216.337 218.249 217.798L219.276 218.686L217.806 222.683L224.737 224.459L229.606 212.47L221.489 213.802Z" fill="#FFB2B6"/>
<path d="M229.553 206.191C226.897 205.347 224.011 206.626 222.197 209.414C220.319 212.609 219.736 216.405 220.568 220.018C218.842 219.459 216.921 220.338 215.753 222.212C214.565 224.341 214.247 226.85 214.868 229.21C213.264 229.479 211.778 230.225 210.601 231.35C209.937 232.114 209.483 233.039 209.283 234.032C209.083 235.025 209.143 236.054 209.459 237.016C210.344 239.112 212.362 239.308 214.08 239.246L247 238.162C247.881 238.217 248.758 238.01 249.523 237.567C251.001 236.564 251.647 233.695 250.842 231.679C250.036 229.663 247.973 228.917 246.593 230.152C248.363 228.588 249.053 224.974 248.062 222.363C247.071 219.752 244.521 218.562 242.636 219.787C244.468 216.75 244.105 211.857 242.291 208.793C241.516 207.448 240.417 206.321 239.095 205.514C237.772 204.707 236.268 204.246 234.722 204.175C231.89 204.033 229.101 205.001 226.348 205.951C226.348 207.248 226.348 208.553 226.304 209.859" fill="#452B2C"/>
<defs>
<linearGradient id="paint0_linear" x1="253.966" y1="243.278" x2="185.696" y2="450.364" gradientUnits="userSpaceOnUse">
<stop stop-color="#EDE97B"/>
<stop offset="0.11" stop-color="#EFE986"/>
<stop offset="0.99" stop-color="#FFE7DB"/>
</linearGradient>
<linearGradient id="paint1_linear" x1="268.492" y1="72.9675" x2="352.16" y2="72.9675" gradientUnits="userSpaceOnUse">
<stop stop-color="#453AE9"/>
<stop offset="0.21" stop-color="#453FE9"/>
<stop offset="0.47" stop-color="#434EE8"/>
<stop offset="0.76" stop-color="#4167E7"/>
<stop offset="1" stop-color="#3F82E6"/>
</linearGradient>
<linearGradient id="paint2_linear" x1="-111753" y1="1267.49" x2="-119660" y2="1267.49" gradientUnits="userSpaceOnUse">
<stop stop-color="#453AE9"/>
<stop offset="0.21" stop-color="#453FE9"/>
<stop offset="0.47" stop-color="#434EE8"/>
<stop offset="0.76" stop-color="#4167E7"/>
<stop offset="1" stop-color="#3F82E6"/>
</linearGradient>
<linearGradient id="paint3_linear" x1="-80600.3" y1="4274.52" x2="-84947.5" y2="4274.52" gradientUnits="userSpaceOnUse">
<stop stop-color="#453AE9"/>
<stop offset="0.21" stop-color="#453FE9"/>
<stop offset="0.47" stop-color="#434EE8"/>
<stop offset="0.76" stop-color="#4167E7"/>
<stop offset="1" stop-color="#3F82E6"/>
</linearGradient>
<linearGradient id="paint4_linear" x1="13977.3" y1="12835.5" x2="38222.7" y2="6856.32" gradientUnits="userSpaceOnUse">
<stop stop-color="#453AE9"/>
<stop offset="0.21" stop-color="#453FE9"/>
<stop offset="0.47" stop-color="#434EE8"/>
<stop offset="0.76" stop-color="#4167E7"/>
<stop offset="1" stop-color="#3F82E6"/>
</linearGradient>
<linearGradient id="paint5_linear" x1="11486.7" y1="576.748" x2="14842" y2="576.748" gradientUnits="userSpaceOnUse">
<stop stop-color="#453AE9"/>
<stop offset="0.21" stop-color="#453FE9"/>
<stop offset="0.47" stop-color="#434EE8"/>
<stop offset="0.76" stop-color="#4167E7"/>
<stop offset="1" stop-color="#3F82E6"/>
</linearGradient>
<linearGradient id="paint6_linear" x1="170.394" y1="70.5311" x2="176.763" y2="348.195" gradientUnits="userSpaceOnUse">
<stop offset="0.01" stop-color="#4D4D4D"/>
<stop offset="1" stop-color="#333333"/>
</linearGradient>
<linearGradient id="paint7_linear" x1="117.504" y1="166.883" x2="206.536" y2="166.883" gradientUnits="userSpaceOnUse">
<stop stop-color="#FFADA6"/>
<stop offset="0.24" stop-color="#FFB2AB"/>
<stop offset="0.53" stop-color="#FFC1B9"/>
<stop offset="0.85" stop-color="#FFDACF"/>
<stop offset="0.99" stop-color="#FFE7DB"/>
</linearGradient>
<linearGradient id="paint8_linear" x1="16225.4" y1="2139.46" x2="25250.5" y2="2139.46" gradientUnits="userSpaceOnUse">
<stop stop-color="#FFADA6"/>
<stop offset="0.24" stop-color="#FFB2AB"/>
<stop offset="0.53" stop-color="#FFC1B9"/>
<stop offset="0.85" stop-color="#FFDACF"/>
<stop offset="0.99" stop-color="#FFE7DB"/>
</linearGradient>
<linearGradient id="paint9_linear" x1="16464.6" y1="2336.46" x2="25489.8" y2="2336.46" gradientUnits="userSpaceOnUse">
<stop stop-color="#FFADA6"/>
<stop offset="0.24" stop-color="#FFB2AB"/>
<stop offset="0.53" stop-color="#FFC1B9"/>
<stop offset="0.85" stop-color="#FFDACF"/>
<stop offset="0.99" stop-color="#FFE7DB"/>
</linearGradient>
<linearGradient id="paint10_linear" x1="16703.8" y1="2533.58" x2="25729" y2="2533.58" gradientUnits="userSpaceOnUse">
<stop stop-color="#FFADA6"/>
<stop offset="0.24" stop-color="#FFB2AB"/>
<stop offset="0.53" stop-color="#FFC1B9"/>
<stop offset="0.85" stop-color="#FFDACF"/>
<stop offset="0.99" stop-color="#FFE7DB"/>
</linearGradient>
<linearGradient id="paint11_linear" x1="16936.7" y1="2724.88" x2="25961" y2="2724.88" gradientUnits="userSpaceOnUse">
<stop stop-color="#FFADA6"/>
<stop offset="0.24" stop-color="#FFB2AB"/>
<stop offset="0.53" stop-color="#FFC1B9"/>
<stop offset="0.85" stop-color="#FFDACF"/>
<stop offset="0.99" stop-color="#FFE7DB"/>
</linearGradient>
<linearGradient id="paint12_linear" x1="12905.1" y1="3814.6" x2="13005.5" y2="4250.88" gradientUnits="userSpaceOnUse">
<stop stop-color="#453AE9"/>
<stop offset="0.21" stop-color="#453FE9"/>
<stop offset="0.47" stop-color="#434EE8"/>
<stop offset="0.76" stop-color="#4167E7"/>
<stop offset="1" stop-color="#3F82E6"/>
</linearGradient>
<linearGradient id="paint13_linear" x1="12563.7" y1="27782.1" x2="11939.6" y2="34784.6" gradientUnits="userSpaceOnUse">
<stop stop-color="#453AE9"/>
<stop offset="0.21" stop-color="#453FE9"/>
<stop offset="0.47" stop-color="#434EE8"/>
<stop offset="0.76" stop-color="#4167E7"/>
<stop offset="1" stop-color="#3F82E6"/>
</linearGradient>
</defs>
</svg>
