<?xml version="1.0" encoding="utf-8"?>
<!-- Generator: Adobe Illustrator 24.0.2, SVG Export Plug-In . SVG Version: 6.00 Build 0)  -->
<svg version="1.1" id="Marca" xmlns="http://www.w3.org/2000/svg" xmlns:xlink="http://www.w3.org/1999/xlink" x="0px" y="0px"
	 viewBox="0 0 600 228.1" style="enable-background:new 0 0 600 228.1;" xml:space="preserve">
<style type="text/css">
	.st0{fill:#262323;}
</style>
<g>
	<path class="st0" d="M345.2,194.7c-21.9,4.3-43.7-4.1-51.6-19.8l-32.8,17.2c11.8,23.3,39.4,37,70.2,35.9c5.3-0.2,10.6-0.8,16-1.8
		c29.4-5.7,51.2-21.8,63-45.6l-32.5-8.2C368.2,190.2,351.6,193.5,345.2,194.7z"/>
	<path class="st0" d="M564.8,31.6L564.8,31.6l-3.1,17.5c-4.1-5.2-9.4-9.7-15.7-13.2c-7.6-4.1-16.8-6.4-26.4-6.7
		c-9.6-0.3-19.7,1.3-29.4,4.8c-9.6,3.4-18.7,8.6-26.4,15c-10,8.2-17.8,18.4-22.9,29.1c-1.2-8.9-4.4-17.1-9.3-24.1l13.2,4.3l6.6-32.6
		c-10.1,0.5-20.1,1-30.2,1.4c-13.9,0.7-27.9,1.3-41.8,2c-21,1-40.6,7.8-56.9,21.4C314.7,57,308,65,303,73.8
		c-5.5-26-29.1-44.7-60.7-44.7c-31.9,0-62.5,19.1-77,45.6c-1.7-9.5-5.8-18.4-12.1-25.8c-5.5-6.4-12.7-11.6-21.1-15s-18-5-27.7-4.8
		c-9.7,0.3-19.7,2.7-28.8,6.7c-7.6,3.4-14.4,8-20.4,13.2l8.6-49H28.5L0,161.5h35.3l3.1-17.5c4.1,5.2,9.3,9.7,15.7,13.1
		c7.6,4.1,16.8,6.4,26.4,6.8c9.6,0.3,19.8-1.3,29.4-4.8c9.6-3.4,18.7-8.6,26.4-15.1c8.9-7.4,16.1-16.3,21.2-25.8
		c5.1,26.5,28.9,45.7,60.9,45.7c31.6,0,61.8-18.7,76.5-44.7c5.5,26,29.2,44.7,60.7,44.7c33.3,0,65-20.7,78.7-49
		c1.3,10.8,5.6,20.9,12.6,29.1c5.5,6.4,12.7,11.6,21.1,15.1c8.4,3.4,18,5,27.7,4.8c9.7-0.3,19.7-2.7,28.8-6.8
		c7.7-3.4,14.4-8.2,20.4-13.5l-3.1,17.8h35.3l22.9-130h-35.2V31.6z M130.1,96.5c-0.9,4.7-2.8,9.2-5.4,13.4c-2.7,4.2-6.3,8-10.4,11.1
		c-8.2,6.3-18,10.1-28,10.7c-5,0.3-10-0.1-14.8-1.2c-4.9-1.1-9.6-3.2-13.7-6.2s-7.4-7.1-9.3-12c-1.9-4.8-2.4-10.3-1.5-15.9
		c1-5.6,3.4-11.1,7.1-15.9c3.7-4.8,8.4-8.9,13.6-12c5.2-3,10.6-5.1,15.9-6.2c5.3-1.2,10.4-1.5,15.3-1.2c9.8,0.6,18.3,4.4,24.3,10.8
		c3,3.2,5.2,7,6.4,11.2C130.6,87.3,130.8,91.9,130.1,96.5z M267.9,96.5c-3.4,19.5-23.1,35.3-43.8,35.3s-34.7-15.8-31.3-35.3
		s23.1-35.3,43.8-35.3C257.3,61.2,271.4,77.1,267.9,96.5z M361.3,131.8c-0.3,0-0.6,0-0.9,0c-2.2,0.1-4.4,0.1-6.6,0
		c-9.8-0.6-18.3-4.4-24.2-10.7c-3-3.1-5.2-6.9-6.5-11.1c-1.2-4.2-1.4-8.8-0.7-13.4c0.9-4.7,2.7-9.2,5.4-13.5
		c2.7-4.2,6.3-8,10.4-11.2c8.2-6.3,18-10.1,28.1-10.8c2.6-0.2,5.1-0.1,7.7,0.1h0.1c11.3,0.1,20.6,4.9,26.1,12.4l0,0l0,0
		c2.5,3.5,4.3,7.5,5,11.9c0.5,2.9,0.6,6.1,0.2,9.3c-0.1,0.5-0.2,1.1-0.2,1.6c-0.1,0.5-0.2,1-0.3,1.5c-1.3,6-4.3,11.7-8.3,16.6
		c-1.1,1.3-2.2,2.6-3.5,3.8l0,0l0,0C384.7,126.6,373.2,131.8,361.3,131.8z M553.3,96.5c-1,5.6-3.5,11.1-7.1,15.9
		c-3.7,4.8-8.4,8.9-13.6,12c-5.2,3-10.6,5.1-15.9,6.2c-5.3,1.2-10.4,1.5-15.3,1.2c-9.8-0.6-18.3-4.4-24.3-10.7
		c-3-3.1-5.2-7-6.4-11.1c-1.2-4.2-1.4-8.8-0.7-13.4c0.9-4.7,2.8-9.2,5.4-13.5c2.7-4.2,6.3-8,10.4-11.2c8.2-6.3,18.1-10.1,28.1-10.8
		c5-0.3,10,0.1,14.9,1.2s9.6,3.2,13.7,6.2c4.1,3,7.4,7.2,9.3,12C553.8,85.4,554.3,91,553.3,96.5z"/>
</g>
</svg>
