<svg width="51" height="53" viewBox="0 0 51 53" fill="none" xmlns="http://www.w3.org/2000/svg">
<path d="M35.085 44.8679V40.8508C35.085 38.72 34.2386 36.6765 32.7319 35.1698C31.2251 33.663 29.1816 32.8166 27.0508 32.8166H10.9824C8.85163 32.8166 6.80811 33.663 5.3014 35.1698C3.7947 36.6765 2.94824 38.72 2.94824 40.8508V44.8679" stroke="#FF6E40" stroke-width="4" stroke-linecap="round" stroke-linejoin="round"/>
<path d="M19.0166 24.7824C23.4538 24.7824 27.0508 21.1854 27.0508 16.7482C27.0508 12.3111 23.4538 8.71405 19.0166 8.71405C14.5795 8.71405 10.9824 12.3111 10.9824 16.7482C10.9824 21.1854 14.5795 24.7824 19.0166 24.7824Z" stroke="#FF6E40" stroke-width="4" stroke-linecap="round" stroke-linejoin="round"/>
<path d="M47.136 44.8679V40.8508C47.1347 39.0707 46.5422 37.3414 45.4516 35.9345C44.3609 34.5276 42.8339 33.5227 41.1104 33.0777" stroke="#FF6E40" stroke-width="4" stroke-linecap="round" stroke-linejoin="round"/>
<path d="M33.0762 8.97516C34.8044 9.41764 36.3361 10.4227 37.43 11.8319C38.5238 13.2412 39.1176 14.9743 39.1176 16.7583C39.1176 18.5422 38.5238 20.2754 37.43 21.6846C36.3361 23.0938 34.8044 24.0989 33.0762 24.5414" stroke="#FF6E40" stroke-width="4" stroke-linecap="round" stroke-linejoin="round"/>
</svg>
