<svg id="visual" viewBox="0 0 1440 200" width="1440" height="200" xmlns="http://www.w3.org/2000/svg" xmlns:xlink="http://www.w3.org/1999/xlink" version="1.1"><rect x="0" y="0" width="1440" height="200" fill="#FFFFFF"></rect><path d="M0 66L48 83.5C96 101 192 136 288 152.5C384 169 480 167 576 144.7C672 122.3 768 79.7 864 56C960 32.3 1056 27.7 1152 42.5C1248 57.3 1344 91.7 1392 108.8L1440 126L1440 201L1392 201C1344 201 1248 201 1152 201C1056 201 960 201 864 201C768 201 672 201 576 201C480 201 384 201 288 201C192 201 96 201 48 201L0 201Z" fill="#A16DF4" stroke-linecap="round" stroke-linejoin="miter"></path></svg>