<svg width="41" height="41" viewBox="0 0 41 41" fill="none" xmlns="http://www.w3.org/2000/svg">
<path d="M33.5194 3.96124H6.85274C5.01179 3.96124 3.51941 5.45363 3.51941 7.29458V13.9612C3.51941 15.8022 5.01179 17.2946 6.85274 17.2946H33.5194C35.3604 17.2946 36.8527 15.8022 36.8527 13.9612V7.29458C36.8527 5.45363 35.3604 3.96124 33.5194 3.96124Z" stroke="#4A00BE" stroke-width="2" stroke-linecap="round" stroke-linejoin="round"/>
<path d="M33.5194 23.9613H6.85274C5.01179 23.9613 3.51941 25.4537 3.51941 27.2946V33.9613C3.51941 35.8022 5.01179 37.2946 6.85274 37.2946H33.5194C35.3604 37.2946 36.8527 35.8022 36.8527 33.9613V27.2946C36.8527 25.4537 35.3604 23.9613 33.5194 23.9613Z" stroke="#4A00BE" stroke-width="2" stroke-linecap="round" stroke-linejoin="round"/>
<path d="M10.186 10.6279H10.2027" stroke="#4A00BE" stroke-width="2" stroke-linecap="round" stroke-linejoin="round"/>
<path d="M10.186 30.6279H10.2027" stroke="#4A00BE" stroke-width="2" stroke-linecap="round" stroke-linejoin="round"/>
</svg>
