<svg width="41" height="41" viewBox="0 0 41 41" fill="none" xmlns="http://www.w3.org/2000/svg">
<g clip-path="url(#clip0_168:662)">
<path d="M26.8527 27.2477L20.1861 20.5811L13.5194 27.2477" stroke="#4A00BE" stroke-width="2" stroke-linecap="round" stroke-linejoin="round"/>
<path d="M20.186 20.5811V35.5811" stroke="#4A00BE" stroke-width="2" stroke-linecap="round" stroke-linejoin="round"/>
<path d="M34.1693 31.231C35.7949 30.3448 37.079 28.9425 37.8191 27.2454C38.5592 25.5483 38.713 23.6531 38.2563 21.8589C37.7996 20.0646 36.7584 18.4736 35.2971 17.3368C33.8357 16.2 32.0374 15.5823 30.186 15.581H28.086C27.5815 13.6298 26.6412 11.8183 25.3359 10.2827C24.0305 8.74713 22.394 7.52747 20.5495 6.71539C18.7049 5.90332 16.7002 5.51998 14.6862 5.59419C12.6721 5.66839 10.7011 6.19822 8.92126 7.14382C7.14145 8.08943 5.59915 9.42622 4.41034 11.0537C3.22152 12.6811 2.41712 14.5569 2.0576 16.54C1.69809 18.5231 1.79281 20.5619 2.33466 22.5031C2.8765 24.4444 3.85137 26.2375 5.18597 27.7477" stroke="#4A00BE" stroke-width="2" stroke-linecap="round" stroke-linejoin="round"/>
<path d="M26.8527 27.2477L20.1861 20.5811L13.5194 27.2477" stroke="#4A00BE" stroke-width="2" stroke-linecap="round" stroke-linejoin="round"/>
</g>
<defs>
<clipPath id="clip0_168:662">
<rect width="40" height="40" fill="white" transform="translate(0.186035 0.581055)"/>
</clipPath>
</defs>
</svg>
