<svg width="12" height="20" viewBox="0 0 12 20" fill="none" xmlns="http://www.w3.org/2000/svg">
<path d="M11.137 0.924339L8.60476 0.92041C5.76054 0.92041 3.92205 2.734 3.92205 5.54038V7.67049H1.3766C1.27099 7.67049 1.16971 7.71083 1.09503 7.78264C1.02035 7.85444 0.978394 7.95183 0.978394 8.05338V11.1396C0.978394 11.2412 1.02035 11.3386 1.09503 11.4104C1.16971 11.4822 1.27099 11.5225 1.3766 11.5225H3.92205V19.3108C3.92199 19.3611 3.93225 19.4109 3.95224 19.4574C3.97223 19.5039 4.00156 19.5461 4.03855 19.5817C4.07554 19.6172 4.11946 19.6454 4.1678 19.6646C4.21614 19.6839 4.26795 19.6937 4.32026 19.6937H7.6417C7.69399 19.6937 7.74577 19.6838 7.79409 19.6645C7.8424 19.6453 7.8863 19.6171 7.92328 19.5815C7.96025 19.546 7.98958 19.5038 8.0096 19.4573C8.02961 19.4109 8.03991 19.3611 8.03991 19.3108V11.5229H11.0163C11.0686 11.523 11.1204 11.5131 11.1687 11.4939C11.2171 11.4747 11.261 11.4465 11.298 11.4109C11.335 11.3754 11.3643 11.3331 11.3843 11.2866C11.4043 11.2402 11.4145 11.1904 11.4145 11.1401V8.05382C11.4145 7.95227 11.3725 7.85488 11.2978 7.78307C11.2232 7.71127 11.1219 7.67093 11.0163 7.67093H8.03991V5.86477C8.03991 4.99683 8.25513 4.555 9.43069 4.555H11.1361C11.2417 4.55489 11.3428 4.5145 11.4174 4.4427C11.492 4.37091 11.5339 4.27359 11.5339 4.17211V1.30723C11.5339 1.20591 11.4921 1.10871 11.4177 1.03695C11.3434 0.965179 11.2424 0.924686 11.137 0.924339Z" fill="white"/>
</svg>
