<svg width="21" height="20" viewBox="0 0 21 20" fill="none" xmlns="http://www.w3.org/2000/svg">
<path d="M19.76 3.55432C19.5692 3.05717 19.2648 2.60718 18.8692 2.23782C18.4851 1.85751 18.0174 1.56482 17.5 1.38135C17.0805 1.22466 16.4501 1.03816 15.2892 0.987346C14.0333 0.932276 13.6567 0.92041 10.4773 0.92041C7.29748 0.92041 6.92093 0.931972 5.66535 0.987041C4.50438 1.03816 3.87374 1.22466 3.45447 1.38135C2.93711 1.56482 2.46912 1.85751 2.08529 2.23782C1.68976 2.60718 1.38535 3.05687 1.19423 3.55432C1.03127 3.95776 0.837301 4.56413 0.784458 5.68043C0.727184 6.88771 0.714844 7.24977 0.714844 10.3072C0.714844 13.3643 0.727184 13.7264 0.784458 14.934C0.837301 16.0503 1.03127 16.6563 1.19423 17.0598C1.38535 17.5572 1.68944 18.0069 2.08497 18.3763C2.46912 18.7566 2.9368 19.0493 3.45415 19.2327C3.87374 19.3897 4.50438 19.5762 5.66535 19.627C6.92093 19.6821 7.29716 19.6937 10.4769 19.6937C13.657 19.6937 14.0336 19.6821 15.2888 19.627C16.4498 19.5762 17.0805 19.3897 17.5 19.2327C18.5386 18.8476 19.3594 18.0583 19.76 17.0598C19.9229 16.6563 20.1169 16.0503 20.1701 14.934C20.2273 13.7264 20.2394 13.3643 20.2394 10.3072C20.2394 7.24977 20.2273 6.88771 20.1701 5.68043C20.1172 4.56413 19.9232 3.95776 19.76 3.55432ZM10.4773 16.1863C7.10003 16.1863 4.3623 13.5542 4.3623 10.3069C4.3623 7.05961 7.10003 4.42752 10.4773 4.42752C13.8542 4.42752 16.5919 7.05961 16.5919 10.3069C16.5919 13.5542 13.8542 16.1863 10.4773 16.1863ZM16.8336 5.56908C16.0445 5.56908 15.4047 4.95388 15.4047 4.19508C15.4047 3.43627 16.0445 2.82107 16.8336 2.82107C17.6228 2.82107 18.2626 3.43627 18.2626 4.19508C18.2623 4.95388 17.6228 5.56908 16.8336 5.56908Z" fill="white"/>
</svg>
