<svg width="21" height="20" viewBox="0 0 21 20" fill="none" xmlns="http://www.w3.org/2000/svg">
<path d="M20.0129 19.6918H20.0179V12.8078C20.0179 9.43949 19.2637 6.84486 15.1686 6.84486C14.3996 6.81739 13.6373 6.9911 12.963 7.34748C12.2886 7.70385 11.7275 8.22952 11.3395 8.86844H11.2827V7.1592H7.39917V19.6918H11.4403V13.4866C11.4403 11.8525 11.7622 10.2725 13.8672 10.2725C15.9409 10.2725 15.9718 12.1372 15.9718 13.5905V19.6918H20.0129Z" fill="white"/>
<path d="M0.817139 7.16016H4.86325V19.6937H0.817139V7.16016Z" fill="white"/>
<path d="M2.83821 0.920434C2.37138 0.918363 1.91444 1.04971 1.52539 1.29779C1.13634 1.54587 0.832723 1.89951 0.65308 2.31382C0.473437 2.72812 0.42587 3.1844 0.516415 3.62475C0.606961 4.06509 0.831537 4.46964 1.16164 4.78703C1.49173 5.10443 1.91247 5.32037 2.37044 5.40743C2.8284 5.49449 3.30294 5.44875 3.73382 5.27602C4.16471 5.10329 4.5325 4.81136 4.79051 4.43728C5.04852 4.06319 5.18512 3.62384 5.18296 3.17497C5.18284 2.57707 4.93577 2.00368 4.49607 1.5809C4.05637 1.15812 3.46004 0.92055 2.83821 0.920434Z" fill="white"/>
</svg>
