<svg width="190" height="180" xmlns="http://www.w3.org/2000/svg">
 <g>
  <title>Layer 1</title>
  <g stroke="null" id="surface1215509">
   <path stroke="null" d="m95.09375,8c-44.04687,0 -79.90625,35.82813 -79.92187,79.875c-0.00782,14.07813 3.67968,27.82422 10.67187,39.9375l-10.84375,40.1875l41.85938,-9.89062c11.67187,6.36718 24.8125,9.71093 38.1875,9.71875l0.03125,0c44.03906,0 79.88281,-35.83594 79.90625,-79.875c0.01562,-21.35157 -8.28516,-41.42579 -23.375,-56.53125c-15.08985,-15.09766 -35.14063,-23.41407 -56.51563,-23.42188zm-0.01562,16c17.08984,0.00781 33.14843,6.67188 45.21875,18.73438c12.07031,12.07812 18.70312,28.13281 18.6875,45.20312c-0.01563,35.23047 -28.67579,63.89063 -63.92188,63.89063c-10.66406,-0.00782 -21.22656,-2.6875 -30.53125,-7.76563l-5.39062,-2.9375l-5.95313,1.40625l-15.75,3.71875l3.84375,-14.28125l1.73438,-6.40625l-3.3125,-5.75c-5.58594,-9.66406 -8.53907,-20.71484 -8.53125,-31.9375c0.01562,-35.21484 28.68359,-63.875 63.90625,-63.875zm-28.26563,27c-1.33594,0 -3.49609,0.5 -5.32812,2.5c-1.83204,1.99219 -7,6.81641 -7,16.64063c0,9.82421 7.15625,19.32031 8.15625,20.65625c0.99218,1.32812 13.8125,22.125 34.10937,30.125c16.86328,6.64843 20.28906,5.33593 23.95313,5c3.66406,-0.32813 11.82031,-4.82032 13.48437,-9.48438c1.66406,-4.66406 1.66797,-8.67578 1.17188,-9.5c-0.4961,-0.83203 -1.82813,-1.32812 -3.82813,-2.32812c-1.99219,-1 -11.80859,-5.82032 -13.64062,-6.48438c-1.83204,-0.66406 -3.17188,-1 -4.5,1c-1.32813,2 -5.14454,6.48438 -6.3125,7.8125c-1.16797,1.33594 -2.32813,1.51563 -4.32813,0.51563c-2,-1.00782 -8.42969,-3.1211 -16.0625,-9.92188c-5.9375,-5.28906 -9.94141,-11.8125 -11.10937,-13.8125c-1.16016,-1.99219 -0.10938,-3.08594 0.89062,-4.07812c0.89453,-0.89454 1.98438,-2.33204 2.98438,-3.5c0.99218,-1.16797 1.33593,-2 2,-3.32813c0.66406,-1.32812 0.32421,-2.5 -0.17188,-3.5c-0.49609,-1 -4.37891,-10.85937 -6.15625,-14.8125c-1.49609,-3.32031 -3.07422,-3.39844 -4.5,-3.45312c-1.16016,-0.04688 -2.48437,-0.04688 -3.8125,-0.04688zm0,0" fill-rule="nonzero" fill="rgb(100%,100%,100%)" id="svg_1"/>
  </g>
 </g>

</svg>